<svg xmlns="http://www.w3.org/2000/svg" viewBox="0 0 512 512">
  <defs>
    <linearGradient id="grad" x1="0%" y1="0%" x2="100%" y2="100%">
      <stop offset="0%" style="stop-color:#2dd4bf;stop-opacity:1" />
      <stop offset="100%" style="stop-color:#14b8a6;stop-opacity:1" />
    </linearGradient>
  </defs>
  <rect width="512" height="512" rx="96" fill="#0a0f1a"/>
  <rect x="56" y="56" width="400" height="400" rx="64" fill="url(#grad)"/>
  <path d="M256 136c-66.3 0-120 53.7-120 120s53.7 120 120 120 120-53.7 120-120-53.7-120-120-120zm0 200c-44.2 0-80-35.8-80-80s35.8-80 80-80 80 35.8 80 80-35.8 80-80 80z" fill="#0a0f1a"/>
  <circle cx="256" cy="256" r="32" fill="#0a0f1a"/>
  <path d="M256 168v32M256 312v32M168 256h32M312 256h32" stroke="#0a0f1a" stroke-width="16" stroke-linecap="round"/>
</svg>